<?xml version="1.0" encoding="UTF-8"?>
<svg id="Capa_1" data-name="Capa 1" xmlns="http://www.w3.org/2000/svg" viewBox="88 250 535 125">
  <defs>
    <style>
      .cls-1 {
        fill: #E5B097;
      }
    </style>
  </defs>
  <path class="cls-1" d="M169.44,266.66h10.43s.32-.43.32-.43c.54-.65.81-1.51.81-2.58v-7.41c0-1.18-.38-2.09-1.13-2.74-.75-.65-1.67-.97-2.74-.97h-81.47c-2.58,0-3.87,1.2-3.87,3.59v6.85c0,2.5,1.29,3.75,3.87,3.75h66.31l-66.27,85.77,6.62,6.6-11.77.02c-.18.28-.31.55-.37.81-.11.48-.16.94-.16,1.37v7.25c0,1.08.38,1.96,1.13,2.66.75.7,1.67,1.05,2.74,1.05h83.57c1.07,0,1.96-.38,2.66-1.14.7-.76,1.05-1.63,1.05-2.61v-6.53c0-1.31-.35-2.28-1.05-2.94-.7-.65-1.59-.98-2.66-.98h-67.76l65.65-85.5-5.9-5.89Z"/>
  <path class="cls-1" d="M300.02,368.38c-.11-.21-.22-.43-.32-.64l-46.46-112.29c-.22-.54-.59-1.15-1.13-1.86-.54-.7-1.51-1.05-2.9-1.05h-4.68c-1.51,0-2.5.35-2.99,1.05-.48.7-.83,1.32-1.05,1.86-.32.75-.92,2.18-1.77,4.28-.86,2.1-2.23,5.38-4.11,9.84-1.88,4.46-4.57,10.87-8.07,19.20-3.5,8.34-7.91,18.88-13.23,31.62-.94,2.24-1.92,4.61-2.94,7.04l4.97,4.98h-7.04c-4.26,10.24-9.12,21.94-14.6,35.17-.11.22-.16.43-.16.64-.11.54-.16,1.02-.16,1.45,0,1.72,1.13,2.58,3.39,2.58h6.94c2.04,0,3.55-1.07,4.52-3.23l9.03-22.91h58.73l9.36,23.07c.75,2.05,2.2,3.07,4.36,3.07h6.94c2.36,0,3.55-.86,3.55-2.58,0-.21-.06-.64-.16-1.29ZM223.06,332.4l23.72-59.05,23.55,59.05h-47.27Z"/>
  <rect class="cls-1" x="337.04" y="262.38" width="7.67" height="4.28"/>
  <path class="cls-1" d="M411.03,252.54h-76.63c-2.37,0-3.55,1.24-3.55,3.71v4.28l6.13,6.14h-6.13s0,102.19,0,102.19c0,2.26,1.18,3.39,3.55,3.39h6.61c2.47,0,3.71-1.13,3.71-3.39v-46.47h52.76c1.18,0,2.07-.38,2.66-1.13.59-.75.89-1.61.89-2.58v-6.62c0-1.29-.35-2.23-1.05-2.82-.7-.59-1.53-.89-2.5-.89h-11.86c-4.68,0-9.52-.02-14.52-.08-5-.05-9.84-.08-14.52-.08h-11.86v-41.62h66.31c1.18,0,2.1-.38,2.74-1.13.65-.75.97-1.61.97-2.58v-6.62c0-2.47-1.24-3.71-3.71-3.71Z"/>
  <path class="cls-1" d="M612.26,367.73l-14.62-35.34h-7.01s4.96-4.96,4.96-4.96l-29.79-71.99c-.22-.54-.59-1.15-1.13-1.86-.54-.7-1.51-1.05-2.9-1.05h-4.68c-1.51,0-2.5.35-2.99,1.05-.48.7-.83,1.32-1.05,1.86-.32.75-.92,2.18-1.77,4.28-.86,2.1-2.23,5.38-4.11,9.84-1.88,4.46-4.57,10.87-8.07,19.20-3.5,8.34-7.91,18.88-13.23,31.62-5.32,12.75-11.86,28.48-19.6,47.19-.11.22-.16.43-.16.64-.11.54-.16,1.02-.16,1.45,0,1.72,1.13,2.58,3.39,2.58h6.94c2.04,0,3.55-1.07,4.52-3.23l9.03-22.91h58.73l9.36,23.07c.75,2.05,2.2,3.07,4.36,3.07h6.94c2.36,0,3.55-.86,3.55-2.58,0-.21-.06-.64-.16-1.29-.11-.21-.22-.43-.32-.64ZM535.63,332.4l23.72-59.05,23.55,59.05h-47.27Z"/>
  <path class="cls-1" d="M524.3,253.42c-.75-.59-1.61-.89-2.58-.89h-82.93c-2.48,0-3.71,1.19-3.71,3.55v6.61c0,2.58,1.24,3.87,3.71,3.87h34.53v102.13c0,1.08.35,1.94,1.05,2.58.7.65,1.59.97,2.66.97h6.61c1.18,0,2.1-.35,2.74-1.05.65-.7.97-1.53.97-2.5v-95.8l-6.29-6.31h6.29s0-.02,0-.02h34.36c1.29,0,2.26-.38,2.9-1.13.65-.75.97-1.67.97-2.74v-6.61c-.11-1.18-.54-2.07-1.29-2.66Z"/>
</svg>
